<?xml version="1.0" encoding="utf-8"?>
<!-- Generator: Adobe Illustrator 22.0.1, SVG Export Plug-In . SVG Version: 6.00 Build 0)  -->
<svg version="1.1" id="Слой_1" xmlns="http://www.w3.org/2000/svg" xmlns:xlink="http://www.w3.org/1999/xlink" x="0px" y="0px"
	 viewBox="0 0 64.5 62.5" style="enable-background:new 0 0 64.5 62.5;" xml:space="preserve">
<style type="text/css">
	.st0{fill-rule:evenodd;clip-rule:evenodd;fill:#DD2B1C;}
	.st1{fill:none;stroke:#DD2B1C;stroke-width:0.216;}
	.st2{fill-rule:evenodd;clip-rule:evenodd;fill:#FFFFFF;}
	.st3{fill:none;stroke:#FFFFFF;stroke-width:0.2999;}
</style>
<rect x="1.1" y="1.3" class="st0" width="62.5" height="60"/>
<rect x="1.1" y="1.3" class="st1" width="62.5" height="60"/>
<path class="st2" d="M32.6,12.2c3.1-1.8,6.8-2.1,11.3-3c-5.4,5.5-8.1,11.4-8.1,11.4C39.8,17,45.4,9.4,49.4,7.6
	c2.9,0.2,6.7-0.9,9.7,0c-3.9,2.3-6.8,4-9.8,8.1c-0.6,0.9,8.6-3.2,11.9-6.5c-0.5,3.7-1.6,9.4-4.6,14.5c-2.4,4.4-5.6,1.7-9.4,1.7
	c0,2.2,2.3,1.9,4.3,2.2c-1.5,2.5-3.7,3.4-5.7,4c-3.9,0-8-5.6-10.3-7.9c0,0,1.8,5.1,5.2,8.3c-1.4,1.2-3.5,1.9-7.3,2.2
	c-2.3-0.6-5-5.4-6.8-8.1c0.5,3.9,0.8,5.7,2.5,8.2c-2.3-0.6-4.3-0.3-7.3-0.9c-1.7-1.2-5.7-7-6.4-8.5c-0.9,2.5,2.8,5.5,2.4,6.9
	c-2.2-1.1-5.1-4.1-6.3-6.3c-2.7-1.8-5-1.9-8.3-2.4c-0.1-0.4-0.1-0.8-0.1-1.5c3.2,0,3.3,1.3,8.4,0.7c-2.2-1.1-1.3-3.9-1.1-4.3
	c1.2-2.6,4.1-4.2,7.3-4.2c-1.1,0,0.3,4.2,0.3,4.2c2.8-2.7,1.5-3.2,5.1-5.7c2.9-0.7,4.4-0.1,6.2,0.4c-1.4,2.4-2.9,2.6-2.6,8.5
	C27.8,21.1,31.6,13.3,32.6,12.2z"/>
<path class="st2" d="M59.7,49.6V50l1.4,0v-0.2c0-0.1,0-0.2,0-0.3c0-0.1,0-0.3-0.1-0.4c-0.1-0.1-0.1-0.3-0.2-0.4
	c-0.1-0.1-0.2-0.2-0.4-0.2c-0.2-0.1-0.3-0.1-0.5-0.1c-0.2,0-0.3,0-0.4,0h-4.1c-0.1,0-0.2,0-0.4,0c-0.1,0-0.3,0-0.4,0.1
	c-0.1,0-0.3,0.1-0.4,0.2c-0.1,0.1-0.2,0.2-0.2,0.3c-0.1,0.1-0.1,0.2-0.1,0.4c0,0.1,0,0.2,0,0.3c0,0.1,0,0.2,0,0.3v0.7
	c0,0.1,0,0.2,0,0.3c0,0.1,0,0.2,0,0.3c0,0.1,0.1,0.2,0.1,0.4c0,0.1,0.1,0.2,0.2,0.3c0.1,0.1,0.2,0.1,0.3,0.2c0.1,0,0.2,0.1,0.3,0.1
	c0.1,0,0.2,0,0.3,0c0.1,0,0.2,0,0.2,0h4.4v1.6H55v-0.6l-1.4,0.1v0.1c0,0.1,0,0.2,0,0.3s0,0.2,0,0.3c0,0.1,0.1,0.2,0.1,0.4
	c0.1,0.1,0.1,0.2,0.2,0.3c0.1,0.1,0.2,0.2,0.4,0.2c0.2,0,0.3,0.1,0.4,0.1c0.1,0,0.3,0,0.4,0h4.5c0.1,0,0.1,0,0.2,0
	c0.1,0,0.2,0,0.3,0c0.1,0,0.2-0.1,0.3-0.1c0.1,0,0.2-0.1,0.3-0.2c0.1-0.1,0.1-0.2,0.2-0.3c0.1-0.1,0.1-0.2,0.1-0.4
	c0-0.1,0-0.3,0-0.4v-1.2c0-0.2,0-0.3,0-0.4c0-0.1-0.1-0.3-0.1-0.4c-0.1-0.1-0.1-0.2-0.2-0.3c-0.1-0.1-0.2-0.2-0.4-0.2
	c-0.2,0-0.3-0.1-0.5-0.1c-0.2,0-0.3,0-0.5,0h-4.2v-1.5H59.7z M52.3,48.4h-1.6v6.8h1.6V48.4z M46.4,49.5c0,0,0.1,0,0.1,0
	c0.1,0,0.1,0,0.2,0c0.1,0,0.1,0,0.2,0.1c0.1,0.1,0.1,0.1,0.1,0.2c0,0.1,0,0.1,0,0.2v0.8c0,0.1,0,0.1,0,0.2c0,0.1-0.1,0.2-0.1,0.2
	c0,0-0.1,0-0.1,0.1c-0.1,0-0.1,0-0.2,0c-0.1,0-0.1,0-0.1,0h-3.6v-1.9H46.4z M41.3,48.4v6.8h1.6v-2.6h1.5l2.7,2.6h2.3l-3.1-2.6h0.9
	c0.1,0,0.2,0,0.4,0c0.1,0,0.3,0,0.4-0.1c0.1,0,0.3-0.1,0.4-0.2c0.1-0.1,0.1-0.1,0.2-0.2c0.1-0.1,0.1-0.2,0.1-0.3
	c0-0.1,0.1-0.3,0.1-0.5v-1.6c0-0.1,0-0.2,0-0.3c0-0.1-0.1-0.2-0.1-0.4c-0.1-0.1-0.2-0.2-0.3-0.3c-0.1-0.1-0.2-0.1-0.4-0.2
	c-0.1,0-0.3-0.1-0.4-0.1c-0.1,0-0.3,0-0.4,0H41.3z M33.5,52.4l1.5-2.8l1.5,2.8H33.5z M34.3,48.4l-3.8,6.8h1.6l0.8-1.5h4.3l0.8,1.5
	h1.8l-3.9-6.8H34.3z M24.1,48.4h-1.6v6.8h6.6v-1.2h-5.1V48.4z M14.2,49.6h5.2v4.3h-5.2V49.6z M12.6,53.5c0,0.1,0,0.2,0,0.3
	c0,0.1,0,0.2,0,0.3c0,0.1,0.1,0.2,0.1,0.4c0.1,0.1,0.1,0.2,0.2,0.3c0.1,0.1,0.2,0.2,0.4,0.2c0.1,0,0.3,0.1,0.5,0.1
	c0.2,0,0.3,0,0.5,0h5c0.1,0,0.3,0,0.5,0c0.2,0,0.3,0,0.5-0.1c0.1,0,0.3-0.1,0.4-0.2c0.1-0.1,0.2-0.2,0.2-0.3
	c0.1-0.1,0.1-0.2,0.1-0.4c0-0.1,0-0.2,0-0.3c0-0.1,0-0.2,0-0.3v-3.6c0-0.1,0-0.2,0-0.3c0-0.1,0-0.2,0-0.3c0-0.1-0.1-0.2-0.1-0.4
	c-0.1-0.1-0.1-0.2-0.2-0.3c-0.1-0.1-0.2-0.2-0.4-0.2c-0.1,0-0.3-0.1-0.5-0.1c-0.2,0-0.3,0-0.5,0h-5c-0.1,0-0.3,0-0.5,0
	c-0.2,0-0.3,0-0.5,0.1c-0.1,0-0.3,0.1-0.4,0.2c-0.1,0.1-0.2,0.2-0.2,0.3c-0.1,0.1-0.1,0.2-0.1,0.4c0,0.1,0,0.2,0,0.3
	c0,0.1,0,0.2,0,0.3V53.5z M8.6,49.5c0.1,0,0.2,0,0.3,0c0.1,0,0.2,0,0.2,0.1c0.1,0.1,0.1,0.1,0.1,0.2c0,0.1,0,0.1,0,0.2v0.7
	c0,0.1,0,0.1,0,0.2c0,0.1-0.1,0.2-0.1,0.2c-0.1,0-0.1,0.1-0.2,0.1c-0.1,0-0.2,0-0.3,0H5.2v-1.8H8.6z M3.6,48.4v6.8h1.6v-2.6h4.2
	c0.1,0,0.1,0,0.2,0c0.1,0,0.2,0,0.3,0c0.1,0,0.2-0.1,0.3-0.1c0.1,0,0.2-0.1,0.3-0.2c0.1-0.1,0.2-0.2,0.2-0.4
	c0.1-0.1,0.1-0.3,0.1-0.4c0-0.1,0-0.2,0-0.3v-1.5c0-0.1,0-0.2,0-0.3c0-0.1-0.1-0.2-0.1-0.4c-0.1-0.1-0.1-0.2-0.3-0.3
	c-0.1-0.1-0.2-0.1-0.3-0.2c-0.1,0-0.3-0.1-0.4-0.1c-0.1,0-0.2,0-0.4,0H3.6z"/>
<path class="st3" d="M59.7,49.6V50l1.4,0v-0.2c0-0.1,0-0.2,0-0.3c0-0.1,0-0.3-0.1-0.4c-0.1-0.1-0.1-0.3-0.2-0.4
	c-0.1-0.1-0.2-0.2-0.4-0.2c-0.2-0.1-0.3-0.1-0.5-0.1c-0.2,0-0.3,0-0.4,0h-4.1c-0.1,0-0.2,0-0.4,0c-0.1,0-0.3,0-0.4,0.1
	c-0.1,0-0.3,0.1-0.4,0.2c-0.1,0.1-0.2,0.2-0.2,0.3c-0.1,0.1-0.1,0.2-0.1,0.4c0,0.1,0,0.2,0,0.3c0,0.1,0,0.2,0,0.3v0.7
	c0,0.1,0,0.2,0,0.3c0,0.1,0,0.2,0,0.3c0,0.1,0.1,0.2,0.1,0.4c0,0.1,0.1,0.2,0.2,0.3c0.1,0.1,0.2,0.1,0.3,0.2c0.1,0,0.2,0.1,0.3,0.1
	c0.1,0,0.2,0,0.3,0c0.1,0,0.2,0,0.2,0h4.4v1.6H55v-0.6l-1.4,0.1v0.1c0,0.1,0,0.2,0,0.3s0,0.2,0,0.3c0,0.1,0.1,0.2,0.1,0.4
	c0.1,0.1,0.1,0.2,0.2,0.3c0.1,0.1,0.2,0.2,0.4,0.2c0.2,0,0.3,0.1,0.4,0.1c0.1,0,0.3,0,0.4,0h4.5c0.1,0,0.1,0,0.2,0
	c0.1,0,0.2,0,0.3,0c0.1,0,0.2-0.1,0.3-0.1c0.1,0,0.2-0.1,0.3-0.2c0.1-0.1,0.1-0.2,0.2-0.3c0.1-0.1,0.1-0.2,0.1-0.4
	c0-0.1,0-0.3,0-0.4v-1.2c0-0.2,0-0.3,0-0.4c0-0.1-0.1-0.3-0.1-0.4c-0.1-0.1-0.1-0.2-0.2-0.3c-0.1-0.1-0.2-0.2-0.4-0.2
	c-0.2,0-0.3-0.1-0.5-0.1c-0.2,0-0.3,0-0.5,0h-4.2v-1.5H59.7z M52.3,48.4h-1.6v6.8h1.6V48.4z M46.4,49.5c0,0,0.1,0,0.1,0
	c0.1,0,0.1,0,0.2,0c0.1,0,0.1,0,0.2,0.1c0.1,0.1,0.1,0.1,0.1,0.2c0,0.1,0,0.1,0,0.2v0.8c0,0.1,0,0.1,0,0.2c0,0.1-0.1,0.2-0.1,0.2
	c0,0-0.1,0-0.1,0.1c-0.1,0-0.1,0-0.2,0c-0.1,0-0.1,0-0.1,0h-3.6v-1.9H46.4z M41.3,48.4v6.8h1.6v-2.6h1.5l2.7,2.6h2.3l-3.1-2.6h0.9
	c0.1,0,0.2,0,0.4,0c0.1,0,0.3,0,0.4-0.1c0.1,0,0.3-0.1,0.4-0.2c0.1-0.1,0.1-0.1,0.2-0.2c0.1-0.1,0.1-0.2,0.1-0.3
	c0-0.1,0.1-0.3,0.1-0.5v-1.6c0-0.1,0-0.2,0-0.3c0-0.1-0.1-0.2-0.1-0.4c-0.1-0.1-0.2-0.2-0.3-0.3c-0.1-0.1-0.2-0.1-0.4-0.2
	c-0.1,0-0.3-0.1-0.4-0.1c-0.1,0-0.3,0-0.4,0H41.3z M33.5,52.4l1.5-2.8l1.5,2.8H33.5z M34.3,48.4l-3.8,6.8h1.6l0.8-1.5h4.3l0.8,1.5
	h1.8l-3.9-6.8H34.3z M24.1,48.4h-1.6v6.8h6.6v-1.2h-5.1V48.4z M14.2,49.6h5.2v4.3h-5.2V49.6z M12.6,53.5c0,0.1,0,0.2,0,0.3
	c0,0.1,0,0.2,0,0.3c0,0.1,0.1,0.2,0.1,0.4c0.1,0.1,0.1,0.2,0.2,0.3c0.1,0.1,0.2,0.2,0.4,0.2c0.1,0,0.3,0.1,0.5,0.1
	c0.2,0,0.3,0,0.5,0h5c0.1,0,0.3,0,0.5,0c0.2,0,0.3,0,0.5-0.1c0.1,0,0.3-0.1,0.4-0.2c0.1-0.1,0.2-0.2,0.2-0.3
	c0.1-0.1,0.1-0.2,0.1-0.4c0-0.1,0-0.2,0-0.3c0-0.1,0-0.2,0-0.3v-3.6c0-0.1,0-0.2,0-0.3c0-0.1,0-0.2,0-0.3c0-0.1-0.1-0.2-0.1-0.4
	c-0.1-0.1-0.1-0.2-0.2-0.3c-0.1-0.1-0.2-0.2-0.4-0.2c-0.1,0-0.3-0.1-0.5-0.1c-0.2,0-0.3,0-0.5,0h-5c-0.1,0-0.3,0-0.5,0
	c-0.2,0-0.3,0-0.5,0.1c-0.1,0-0.3,0.1-0.4,0.2c-0.1,0.1-0.2,0.2-0.2,0.3c-0.1,0.1-0.1,0.2-0.1,0.4c0,0.1,0,0.2,0,0.3
	c0,0.1,0,0.2,0,0.3V53.5z M8.6,49.5c0.1,0,0.2,0,0.3,0c0.1,0,0.2,0,0.2,0.1c0.1,0.1,0.1,0.1,0.1,0.2c0,0.1,0,0.1,0,0.2v0.7
	c0,0.1,0,0.1,0,0.2c0,0.1-0.1,0.2-0.1,0.2c-0.1,0-0.1,0.1-0.2,0.1c-0.1,0-0.2,0-0.3,0H5.2v-1.8H8.6z M3.6,48.4v6.8h1.6v-2.6h4.2
	c0.1,0,0.1,0,0.2,0c0.1,0,0.2,0,0.3,0c0.1,0,0.2-0.1,0.3-0.1c0.1,0,0.2-0.1,0.3-0.2c0.1-0.1,0.2-0.2,0.2-0.4
	c0.1-0.1,0.1-0.3,0.1-0.4c0-0.1,0-0.2,0-0.3v-1.5c0-0.1,0-0.2,0-0.3c0-0.1-0.1-0.2-0.1-0.4c-0.1-0.1-0.1-0.2-0.3-0.3
	c-0.1-0.1-0.2-0.1-0.3-0.2c-0.1,0-0.3-0.1-0.4-0.1c-0.1,0-0.2,0-0.4,0H3.6z"/>
</svg>
